# xmcd CD database file
#
# Track frame offsets:
#	150
#	12675
#	24170
#	38763
#	49587
#	62368
#	71497
#	83330
#	91213
#	100608
#	112237
#	122523
#	134282
#	144368
#	155594
#	169584
#	179594
#	192063
#	204926
#	216629
#	229810
#	240078
#	255627
#	266485
#	277187
#	287770
#	298508
#	310132
#	318805
#	334253
#
# Disc length: 4580 seconds
#
# Revision: 0
# Processed by: cddbd v1.5.2PL0 Copyright (c) Steve Scherf et al.
# Submitted via: CDex 1.51
#
DISCID=a411e21e
DTITLE=Porter Wagoner - The Cold Hard Facts/Soul Of A Convict
DYEAR=2008
DGENRE=Country
TTITLE0=The First Mrs Jones
TTITLE1=Words And Music 
TTITLE2=The Cold Hard Facts Of Life 
TTITLE3=Sleep 
TTITLE4=Hundred Dollar Funeral 
TTITLE5=If I Could Only Start Over 
TTITLE6=Tragic Romance 
TTITLE7=Try Being Lonely 
TTITLE8=I'll Get A Head Some Day 
TTITLE9=I Just Cant Let You Say Goodbye 
TTITLE10=Shopworn
TTITLE11=Julie-Album Version 
TTITLE12=Boston Jail 
TTITLE13=The Convict And The Rose 
TTITLE14=I Relived My Life Today 
TTITLE15=I'm Just Here To Get My Baby Out Of Jail  
TTITLE16=Let Me In 
TTITLE17=The Big River Train 
TTITLE18=The Snakes Crawl At Night 
TTITLE19=There Going Home But One 
TTITLE20=Folsom Prison 
TTITLE21=Soul Of A Convict 
TTITLE22=Green Green Grass Of Home 
TTITLE23=Heard That Lonesome Whistle 
TTITLE24=1 I Lived So Fast And Hard 
TTITLE25=Your Mother's Eyes 
TTITLE26=Julie (Single Vesion)
TTITLE27=Be Proud  Of Your Man
TTITLE28=House of Shame 
TTITLE29=Fallen Leaves
EXTD=YEAR: 2008
EXTT0=
EXTT1=
EXTT2=
EXTT3=
EXTT4=
EXTT5=
EXTT6=
EXTT7=
EXTT8=
EXTT9=
EXTT10=
EXTT11=
EXTT12=
EXTT13=
EXTT14=
EXTT15=
EXTT16=
EXTT17=
EXTT18=
EXTT19=
EXTT20=
EXTT21=
EXTT22=
EXTT23=
EXTT24=
EXTT25=
EXTT26=
EXTT27=
EXTT28=
EXTT29=
PLAYORDER=
